<svg id="ewsmr2H94SI1" xmlns="http://www.w3.org/2000/svg" xmlns:xlink="http://www.w3.org/1999/xlink" viewBox="0 0 300 300" shape-rendering="geometricPrecision" text-rendering="geometricPrecision">
<!-- <defs><style>.cls-1{fill:none;stroke:#020202;stroke-miterlimit:10;stroke-width:10px;}</style></defs> -->
<line x1="137.483538" y1="-130.186953" x2="-125.389478" y2="136.987786" transform="matrix(1.008892 0 0 1.012501 150.059755 150.176183)" fill="none" stroke="#3f5787" stroke-width="2"/>
<line x1="131.941571" y1="-135.606615" x2="-131.941571" y2="135.606615" transform="translate(144.550338 144.54835)" fill="none" stroke="#3f5787" stroke-width="2"/>
<line x1="-4.909742" y1="-4.909742" x2="4.909742" y2="4.909742" transform="translate(262.119307 33.678504)" fill="none" stroke="#3f5787" stroke-width="2"/>
<line x1="-4.909742" y1="-4.909742" x2="4.909742" y2="4.909742" transform="translate(245.172108 52.96693)" fill="none" stroke="#3f5787" stroke-width="2"/>
<line x1="-4.909742" y1="-4.909742" x2="4.909742" y2="4.909742" transform="translate(226.661468 71.90805)" fill="none" stroke="#3f5787" stroke-width="2"/>
<line x1="-4.909742" y1="-4.909742" x2="4.909742" y2="4.909742" transform="translate(205.567949 93.00157)" fill="none" stroke="#3f5787" stroke-width="2"/>
<line x1="-4.909742" y1="-4.909742" x2="4.909742" y2="4.909742" transform="translate(185.020955 113.548565)" fill="none" stroke="#3f5787" stroke-width="2"/>
<line x1="-4.909742" y1="-4.909742" x2="4.909742" y2="4.909742" transform="translate(165.645696 134.041633)" fill="none" stroke="#3f5787" stroke-width="2"/>
<line x1="-4.909742" y1="-4.909742" x2="4.909742" y2="4.909742" transform="translate(145.090258 154.909742)" fill="none" stroke="#3f5787" stroke-width="2"/>
<line x1="-4.909742" y1="-4.909742" x2="4.909742" y2="4.909742" transform="translate(126.247653 173.752347)" fill="none" stroke="#3f5787" stroke-width="2"/>
<line x1="-4.909742" y1="-4.909742" x2="4.909742" y2="4.909742" transform="translate(105.472473 194.044383)" fill="none" stroke="#3f5787" stroke-width="2"/>
<line x1="-4.909742" y1="-4.909742" x2="4.909742" y2="4.909742" transform="translate(85.840894 215.898405)" fill="none" stroke="#3f5787" stroke-width="2"/>
<line x1="-4.909742" y1="-4.909742" x2="4.909742" y2="4.909742" transform="translate(66.579723 234.789169)" fill="none" stroke="#3f5787" stroke-width="2"/>
<line x1="-4.909742" y1="-4.909742" x2="4.909742" y2="4.909742" transform="translate(46.577738 254.791155)" fill="none" stroke="#3f5787" stroke-width="2"/>
<line x1="-4.909742" y1="-4.909742" x2="4.909742" y2="4.909742" transform="translate(28.427788 275.245223)" fill="none" stroke="#3f5787" stroke-width="2"/>
</svg>
