<svg id="epaN9SbFJCB1" xmlns="http://www.w3.org/2000/svg" xmlns:xlink="http://www.w3.org/1999/xlink" viewBox="0 0 300 300" shape-rendering="geometricPrecision" text-rendering="geometricPrecision"><line x1="136.900192" y1="-140.595009" x2="-136.900192" y2="140.59501" transform="translate(136.900192 140.59501)" fill="none" stroke="#3f5787" stroke-width="3"/><line x1="132.581574" y1="-138.483685" x2="-132.581574" y2="138.483685" transform="translate(167.418426 161.516315)" fill="none" stroke="#3f5787" stroke-width="3"/><line x1="-19.193858" y1="-8.157389" x2="19.193858" y2="8.15739" transform="translate(78.023033 228.886757)" fill="none" stroke="#3f5787" stroke-width="3"/><line x1="-19.193857" y1="-7.533589" x2="19.193858" y2="7.533589" transform="translate(135.604607 169.049904)" fill="none" stroke="#3f5787" stroke-width="3"/><line x1="-18.234165" y1="-4.558542" x2="18.234165" y2="4.558542" transform="matrix(.973539 0.228519-.228519 0.973539 168.234165 136.036469)" fill="none" stroke="#3f5787" stroke-width="3"/><line x1="-17.274472" y1="-6.238004" x2="17.274473" y2="6.238003" transform="matrix(.990574 0.13698-.13698 0.990574 193.186181 105.086373)" fill="none" stroke="#3f5787" stroke-width="3"/><line x1="-21.113244" y1="-4.798464" x2="21.113244" y2="4.798464" transform="matrix(.991523 0.129934-.129934 0.991523 220.057582 78.694818)" fill="none" stroke="#3f5787" stroke-width="3"/><line x1="-21.59309" y1="-3.838772" x2="21.593091" y2="3.838772" transform="matrix(.99037 0.138447-.138447 0.99037 252.207294 47.984645)" fill="none" stroke="#3f5787" stroke-width="3"/><line x1="-19.673704" y1="-1.919386" x2="19.673704" y2="1.919386" transform="matrix(.984182 0.177161-.177161 0.984182 278.22454 21.72248)" fill="none" stroke="#3f5787" stroke-width="3"/><line x1="-17.539751" y1="-8.152278" x2="17.53975" y2="8.152279" transform="translate(105.687025 198.050327)" fill="none" stroke="#3f5787" stroke-width="3"/><line x1="-17.916817" y1="-7.911322" x2="17.916817" y2="7.911321" transform="translate(49.657608 255.778562)" fill="none" stroke="#3f5787" stroke-width="3"/><line x1="-15.589958" y1="-9.307437" x2="15.589958" y2="9.307437" transform="translate(27.319759 279.977898)" fill="none" stroke="#3f5787" stroke-width="3"/></svg>
